<!DOCTYPE svg PUBLIC "-//W3C//DTD SVG 1.1//EN" "http://www.w3.org/Graphics/SVG/1.1/DTD/svg11.dtd">
<!-- Uploaded to: SVG Repo, www.svgrepo.com, Transformed by: SVG Repo Mixer Tools -->
<svg fill="#000000" height="64px" width="64px" version="1.1" id="Capa_1" xmlns="http://www.w3.org/2000/svg" xmlns:xlink="http://www.w3.org/1999/xlink" viewBox="0 0 297 297" xml:space="preserve">
<g id="SVGRepo_bgCarrier" stroke-width="0"/>
<g id="SVGRepo_tracerCarrier" stroke-linecap="round" stroke-linejoin="round"/>
<g id="SVGRepo_iconCarrier"> <g> <path d="M244.998,232.971c27.64-11.379,42.86-26.746,42.86-43.271c0-1.188-0.968-2.156-2.156-2.156H2.156 c-1.189,0-2.156,0.968-2.156,2.156c0,16.525,15.221,31.893,42.859,43.271c27.03,11.131,62.924,17.262,101.068,17.262 C182.073,250.232,217.967,244.102,244.998,232.971z"/> <path d="M143.93,147.476c-14.813,0-27.422,9.555-32.022,22.82h26.605c1.638-0.804,3.474-1.261,5.417-1.261 c1.942,0,3.778,0.457,5.416,1.261h26.605C171.351,157.03,158.741,147.476,143.93,147.476z"/> <path d="M22.641,170.371c4.996-20.599,23.584-36.02,45.697-36.02c7.681,0,14.928,1.863,21.335,5.145 c-2.687,3.473-5.046,7.208-7.036,11.162c-4.348-2.034-9.189-3.183-14.299-3.183c-14.813,0-27.422,9.555-32.022,22.82h26.605 c1.637-0.804,3.473-1.261,5.416-1.261c1.938,0,3.77,0.46,5.403,1.261h24.491c4.995-20.599,23.584-35.944,45.697-35.944 c22.112,0,40.701,15.346,45.696,35.944h24.493c1.633-0.802,3.463-1.261,5.401-1.261c1.943,0,3.779,0.457,5.416,1.261h26.606 c-4.6-13.266-17.209-22.82-32.022-22.82c-5.108,0-9.956,1.138-14.305,3.172c-1.988-3.95-4.347-7.683-7.031-11.152 c6.407-3.281,13.656-5.144,21.336-5.144c22.113,0,40.701,15.383,45.697,35.982h21.964c-5.284-32.6-33.593-57.541-67.661-57.541 c-13.957,0-26.938,4.211-37.778,11.403c-10.85-7.198-23.847-11.403-37.813-11.403c-2.366,0-4.703,0.12-7.007,0.355V58.152 l14.013,2.155v9.906c0,5.952,4.827,10.779,10.78,10.779c5.953,0,10.779-4.827,10.779-10.779v-6.59L284.58,80.868 c0.556,0.085,1.107,0.126,1.652,0.126c5.229,0,9.821-3.813,10.641-9.142c0.905-5.885-3.13-11.388-9.015-12.293L172.495,41.81 V27.635h113.724c5.953,0,10.78-4.827,10.78-10.78c0-5.952-4.827-10.779-10.78-10.779H54.998c-5.953,0-10.779,4.827-10.779,10.779 c0,3.697,1.863,6.956,4.699,8.898c-2.374,1.626-4.103,4.182-4.574,7.249c-0.905,5.885,3.131,11.388,9.016,12.293l26.432,4.067 v64.407c-3.728-0.631-7.549-0.977-11.453-0.977c-34.068,0-62.377,24.979-67.661,57.578H22.641z M136.923,27.635h14.013v10.859 l-14.013-2.156V27.635z M101.35,27.635h14.014v5.388l-14.014-2.156V27.635z M101.35,52.679l14.014,2.156v64.214 c-3.218,1.481-6.305,3.197-9.231,5.139c-1.55-1.029-3.148-1.989-4.782-2.891V52.679z"/> <path d="M143.928,267.479c-22.44,0-44.219-2.046-64.137-5.915v18.581c0,5.952,4.826,10.779,10.779,10.779h106.718 c5.953,0,10.779-4.827,10.779-10.779v-18.581C188.149,265.434,166.369,267.479,143.928,267.479z"/> </g> </g>
</svg>